<mxfile host="app.diagrams.net" modified="2023-03-28T01:41:11.954Z" agent="5.0 (Windows NT 10.0; Win64; x64) AppleWebKit/537.36 (KHTML, like Gecko) Chrome/111.0.0.0 Safari/537.36" etag="baLHwts3MaxeqXjTsu6c" version="21.0.10" type="github">
  <diagram name="Página-1" id="QMBy7BHU01Sn5X6CAT6-">
    <mxGraphModel dx="524" dy="579" grid="1" gridSize="10" guides="1" tooltips="1" connect="1" arrows="1" fold="1" page="1" pageScale="1" pageWidth="827" pageHeight="1169" math="0" shadow="0">
      <root>
        <mxCell id="0" />
        <mxCell id="1" parent="0" />
        <mxCell id="Dtf1aG2cQaoIMdy6ayip-1" value="Cliente" style="shape=umlActor;verticalLabelPosition=bottom;verticalAlign=top;html=1;outlineConnect=0;" vertex="1" parent="1">
          <mxGeometry x="30" y="90" width="30" height="60" as="geometry" />
        </mxCell>
        <mxCell id="Dtf1aG2cQaoIMdy6ayip-4" value="Tec. Farmacia" style="shape=umlActor;verticalLabelPosition=bottom;verticalAlign=top;html=1;outlineConnect=0;" vertex="1" parent="1">
          <mxGeometry x="350" y="90" width="30" height="60" as="geometry" />
        </mxCell>
        <mxCell id="Dtf1aG2cQaoIMdy6ayip-5" value="Químico" style="shape=umlActor;verticalLabelPosition=bottom;verticalAlign=top;html=1;outlineConnect=0;" vertex="1" parent="1">
          <mxGeometry x="30" y="240" width="30" height="60" as="geometry" />
        </mxCell>
        <mxCell id="Dtf1aG2cQaoIMdy6ayip-7" value="Entregar medicamentos" style="ellipse;whiteSpace=wrap;html=1;" vertex="1" parent="1">
          <mxGeometry x="160" y="100" width="120" height="80" as="geometry" />
        </mxCell>
        <mxCell id="Dtf1aG2cQaoIMdy6ayip-8" value="Listar Catálogo de medicamentos" style="ellipse;whiteSpace=wrap;html=1;" vertex="1" parent="1">
          <mxGeometry x="160" y="10" width="120" height="80" as="geometry" />
        </mxCell>
        <mxCell id="Dtf1aG2cQaoIMdy6ayip-9" value="Mantener stock de medicamentos e insumos" style="ellipse;whiteSpace=wrap;html=1;" vertex="1" parent="1">
          <mxGeometry x="160" y="200" width="120" height="80" as="geometry" />
        </mxCell>
        <mxCell id="Dtf1aG2cQaoIMdy6ayip-10" value="Generar comprobante" style="ellipse;whiteSpace=wrap;html=1;" vertex="1" parent="1">
          <mxGeometry x="170" y="300" width="120" height="80" as="geometry" />
        </mxCell>
        <mxCell id="Dtf1aG2cQaoIMdy6ayip-11" value="" style="endArrow=classic;html=1;rounded=0;entryX=1;entryY=0.5;entryDx=0;entryDy=0;" edge="1" parent="1" source="Dtf1aG2cQaoIMdy6ayip-4" target="Dtf1aG2cQaoIMdy6ayip-8">
          <mxGeometry width="50" height="50" relative="1" as="geometry">
            <mxPoint x="120" y="340" as="sourcePoint" />
            <mxPoint x="170" y="290" as="targetPoint" />
          </mxGeometry>
        </mxCell>
        <mxCell id="Dtf1aG2cQaoIMdy6ayip-12" value="" style="endArrow=classic;html=1;rounded=0;entryX=1;entryY=0.5;entryDx=0;entryDy=0;" edge="1" parent="1" source="Dtf1aG2cQaoIMdy6ayip-4" target="Dtf1aG2cQaoIMdy6ayip-7">
          <mxGeometry width="50" height="50" relative="1" as="geometry">
            <mxPoint x="120" y="340" as="sourcePoint" />
            <mxPoint x="170" y="290" as="targetPoint" />
          </mxGeometry>
        </mxCell>
        <mxCell id="Dtf1aG2cQaoIMdy6ayip-13" value="" style="endArrow=classic;html=1;rounded=0;entryX=1;entryY=0.5;entryDx=0;entryDy=0;" edge="1" parent="1" target="Dtf1aG2cQaoIMdy6ayip-9">
          <mxGeometry width="50" height="50" relative="1" as="geometry">
            <mxPoint x="360" y="170" as="sourcePoint" />
            <mxPoint x="170" y="290" as="targetPoint" />
          </mxGeometry>
        </mxCell>
        <mxCell id="Dtf1aG2cQaoIMdy6ayip-14" value="" style="endArrow=classic;html=1;rounded=0;entryX=1;entryY=0.5;entryDx=0;entryDy=0;" edge="1" parent="1" target="Dtf1aG2cQaoIMdy6ayip-10">
          <mxGeometry width="50" height="50" relative="1" as="geometry">
            <mxPoint x="365" y="170" as="sourcePoint" />
            <mxPoint x="200" y="290" as="targetPoint" />
          </mxGeometry>
        </mxCell>
      </root>
    </mxGraphModel>
  </diagram>
</mxfile>
